# xmcd
#
# Track frame offsets:
#	150
#	10865
#	23175
#	39000
#	70732
#	92336
#	112498
#	159665
#	190460
#	201514
#	231463
#	257410
#	292118
#
# Disc length: 4504 seconds
#
# Revision: 2
# Processed by: cddbd v1.5.2PL0 Copyright (c) Steve Scherf et al.
# Submitted via: EZCDAudioConverter 1.1.0.1
#
DISCID=b711960d
DTITLE=The Australian Pink Floyd Show - Live at the Hammersmith Apollo 2011
DYEAR=2012
DGENRE=
TTITLE0=Speak to Me
TTITLE1=Breathe
TTITLE2=On the Run
TTITLE3=Time - Breathe (reprise)
TTITLE4=The Great Gig in the Sky
TTITLE5=What Do You Want From Me?
TTITLE6=Careful With That Axe, Eugene
TTITLE7=Money
TTITLE8=The Happiest Days of Our Lives
TTITLE9=Another Brick in the Wall, Part 2
TTITLE10=Wish You Were Here
TTITLE11=One of These Days
TTITLE12=Comfortably Numb
EXTD=
EXTT0=
EXTT1=
EXTT2=
EXTT3=
EXTT4=
EXTT5=
EXTT6=
EXTT7=
EXTT8=
EXTT9=
EXTT10=
EXTT11=
EXTT12=
PLAYORDER=
